<svg width="119" height="59" viewBox="0 0 119 59" fill="none" xmlns="http://www.w3.org/2000/svg">
<g clip-path="url(#clip0_258_925)">
<path d="M75.0329 58.5076C75.0329 54.3926 73.3982 50.446 70.4884 47.5362C67.5786 44.6264 63.632 42.9917 59.5169 42.9917C55.4018 42.9917 51.4553 44.6264 48.5455 47.5362C45.6357 50.446 44.001 54.3926 44.001 58.5076L59.5169 58.5076H75.0329Z" fill="#EDEDED"/>
<g clip-path="url(#clip1_258_925)">
<path d="M86.975 36.4839L58.7215 50.265C57.667 50.7794 57.2686 52.0717 57.8441 53.1112C58.4196 54.1507 59.7385 54.521 60.7488 53.9267L87.817 38.0048C88.2145 37.771 88.3497 37.2627 88.1233 36.8538C87.8969 36.4449 87.3898 36.2815 86.975 36.4839Z" fill="#2C2C2C"/>
</g>
<path d="M0.349609 59.3257C0.349611 43.5915 6.59998 28.5018 17.7257 17.3761C28.8514 6.25037 43.9411 -1.87628e-07 59.6753 0V5.93257C45.5146 5.93257 31.9338 11.5579 21.9207 21.571C11.9075 31.5842 6.28218 45.1649 6.28218 59.3257H0.349609Z" fill="#E15825"/>
<path d="M60.8879 0.0126953C68.2382 0.163 75.4966 1.67823 82.2932 4.48118L80.0314 9.96566C73.9145 7.443 67.3819 6.0793 60.7666 5.94402L60.8879 0.0126953Z" fill="#F18200"/>
<path d="M83.3889 4.94531C90.128 7.88397 96.2621 12.0496 101.479 17.2301L97.2984 21.4396C92.6034 16.7772 87.0827 13.0281 81.0176 10.3833L83.3889 4.94531Z" fill="#FCD800"/>
<path d="M102.278 18.04C107.394 23.3196 111.485 29.5041 114.341 36.2785L108.874 38.5833C106.304 32.4863 102.622 26.9202 98.0176 22.1686L102.278 18.04Z" fill="#A9D161"/>
<path d="M114.869 37.5732C117.565 44.4131 118.965 51.6944 119 59.0463L113.068 59.0742C113.036 52.4576 111.776 45.9044 109.35 39.7485L114.869 37.5732Z" fill="#009900"/>
</g>
<defs>
<clipPath id="clip0_258_925">
<rect width="119" height="59" fill="white"/>
</clipPath>
<clipPath id="clip1_258_925">
<rect width="26.294" height="60.9447" fill="white" transform="translate(68.1963 20.5425) rotate(39.1604)"/>
</clipPath>
</defs>
</svg>
