<svg width="119" height="59" viewBox="0 0 119 59" fill="none" xmlns="http://www.w3.org/2000/svg">
<g clip-path="url(#clip0_258_835)">
<path d="M75.0319 58.5072C75.0319 54.3921 73.3972 50.4455 70.4874 47.5357C67.5776 44.6259 63.631 42.9912 59.516 42.9912C55.4009 42.9912 51.4543 44.6259 48.5445 47.5357C45.6347 50.4455 44 54.3921 44 58.5072L59.5159 58.5072H75.0319Z" fill="#EDEDED"/>
<g clip-path="url(#clip1_258_835)">
<path d="M65.5085 21.0149L57.2075 51.3344C56.8977 52.4661 57.6053 53.6185 58.7661 53.8725C59.9268 54.1264 61.0756 53.3803 61.2962 52.2291L67.2067 21.3865C67.2935 20.9337 67.0011 20.4965 66.5444 20.3966C66.0878 20.2967 65.6303 20.5698 65.5085 21.0149Z" fill="#2C2C2C"/>
</g>
<path d="M0.349609 59.3257C0.349611 43.5915 6.59998 28.5018 17.7257 17.3761C28.8514 6.25037 43.9411 -1.87628e-07 59.6753 0V5.93257C45.5146 5.93257 31.9338 11.5579 21.9207 21.571C11.9075 31.5842 6.28218 45.1649 6.28218 59.3257H0.349609Z" fill="#E15825"/>
<path d="M60.8879 0.0126953C68.2382 0.163 75.4966 1.67823 82.2932 4.48118L80.0314 9.96566C73.9145 7.443 67.3819 6.0793 60.7666 5.94402L60.8879 0.0126953Z" fill="#F18200"/>
<path d="M83.3889 4.94531C90.128 7.88397 96.2621 12.0496 101.479 17.2301L97.2984 21.4396C92.6034 16.7772 87.0827 13.0281 81.0176 10.3833L83.3889 4.94531Z" fill="#FCD800"/>
<path d="M102.278 18.04C107.394 23.3196 111.485 29.5041 114.341 36.2785L108.874 38.5833C106.304 32.4863 102.622 26.9202 98.0176 22.1686L102.278 18.04Z" fill="#A9D161"/>
<path d="M114.869 37.5732C117.565 44.4131 118.965 51.6944 119 59.0463L113.068 59.0742C113.036 52.4576 111.776 45.9044 109.35 39.7485L114.869 37.5732Z" fill="#009900"/>
</g>
<defs>
<clipPath id="clip0_258_835">
<rect width="119" height="59" fill="white"/>
</clipPath>
<clipPath id="clip1_258_835">
<rect width="26.294" height="60.9447" fill="white" transform="translate(41.1377 24.5957) rotate(-9.52661)"/>
</clipPath>
</defs>
</svg>
