<svg width="120" height="60" viewBox="0 0 120 60" fill="none" xmlns="http://www.w3.org/2000/svg">
<path d="M0.67041 59.3257C0.670412 43.5915 6.92078 28.5018 18.0465 17.3761C29.1722 6.25037 44.2619 -1.87628e-07 59.9961 0V5.93257C45.8354 5.93257 32.2546 11.5579 22.2415 21.571C12.2283 31.5842 6.60298 45.1649 6.60298 59.3257H0.67041Z" fill="#D9D9D9"/>
<path d="M61.2087 0.0126953C68.559 0.163 75.8174 1.67823 82.614 4.48118L80.3522 9.96566C74.2353 7.443 67.7027 6.0793 61.0874 5.94402L61.2087 0.0126953Z" fill="#D9D9D9"/>
<path d="M83.7095 4.94531C90.4485 7.88397 96.5826 12.0496 101.799 17.2301L97.619 21.4396C92.924 16.7772 87.4033 13.0281 81.3381 10.3833L83.7095 4.94531Z" fill="#D9D9D9"/>
<path d="M102.599 18.04C107.715 23.3196 111.806 29.5041 114.662 36.2785L109.195 38.5833C106.625 32.4863 102.943 26.9202 98.3386 22.1686L102.599 18.04Z" fill="#D9D9D9"/>
<path d="M115.19 37.5732C117.886 44.4131 119.287 51.6944 119.321 59.0463L113.389 59.0742C113.357 52.4576 112.097 45.9044 109.671 39.7485L115.19 37.5732Z" fill="#D9D9D9"/>
<path d="M75.3532 58.5159C75.3532 54.4009 73.7185 50.4543 70.8087 47.5445C67.8989 44.6347 63.9523 43 59.8372 43C55.7222 43 51.7756 44.6347 48.8658 47.5445C45.956 50.4543 44.3213 54.4009 44.3213 58.5159L59.8372 58.5159H75.3532Z" fill="#EDEDED"/>
</svg>
