<svg width="119" height="59" viewBox="0 0 119 59" fill="none" xmlns="http://www.w3.org/2000/svg">
<g clip-path="url(#clip0_258_895)">
<path d="M75.0319 58.5076C75.0319 54.3926 73.3972 50.446 70.4874 47.5362C67.5776 44.6264 63.631 42.9917 59.516 42.9917C55.4009 42.9917 51.4543 44.6264 48.5445 47.5362C45.6347 50.446 44 54.3926 44 58.5076L59.5159 58.5076H75.0319Z" fill="#EDEDED"/>
<g clip-path="url(#clip1_258_895)">
<path d="M47.721 22.4816L56.9002 52.5468C57.2428 53.669 58.4566 54.2651 59.5736 53.8598C60.6905 53.4544 61.263 52.21 60.8346 51.119L49.3552 21.8885C49.1866 21.4593 48.7058 21.246 48.2665 21.4054C47.8271 21.5649 47.5862 22.0401 47.721 22.4816Z" fill="#2C2C2C"/>
</g>
<path d="M0.349609 59.3257C0.349611 43.5915 6.59998 28.5018 17.7257 17.3761C28.8514 6.25037 43.9411 -1.87628e-07 59.6753 0V5.93257C45.5146 5.93257 31.9338 11.5579 21.9207 21.571C11.9075 31.5842 6.28218 45.1649 6.28218 59.3257H0.349609Z" fill="#E15825"/>
<path d="M60.8879 0.0126953C68.2382 0.163 75.4966 1.67823 82.2932 4.48118L80.0314 9.96566C73.9145 7.443 67.3819 6.0793 60.7666 5.94402L60.8879 0.0126953Z" fill="#F18200"/>
<path d="M83.3889 4.94531C90.128 7.88397 96.2621 12.0496 101.479 17.2301L97.2984 21.4396C92.6034 16.7772 87.0827 13.0281 81.0176 10.3833L83.3889 4.94531Z" fill="#FCD800"/>
<path d="M102.278 18.04C107.394 23.3196 111.485 29.5041 114.341 36.2785L108.874 38.5833C106.304 32.4863 102.622 26.9202 98.0176 22.1686L102.278 18.04Z" fill="#A9D161"/>
<path d="M114.869 37.5732C117.565 44.4131 118.965 51.6944 119 59.0463L113.068 59.0742C113.036 52.4576 111.776 45.9044 109.35 39.7485L114.869 37.5732Z" fill="#009900"/>
</g>
<defs>
<clipPath id="clip0_258_895">
<rect width="119" height="59" fill="white"/>
</clipPath>
<clipPath id="clip1_258_895">
<rect width="26.294" height="60.9447" fill="white" transform="translate(29.0312 38.5273) rotate(-41.816)"/>
</clipPath>
</defs>
</svg>
