<svg width="10" height="10" viewBox="0 0 10 10" fill="none" xmlns="http://www.w3.org/2000/svg">
<path d="M8.72016 9.24998C7.77786 9.24998 6.83123 9.0309 5.88028 8.59276C4.92932 8.15462 4.0556 7.53651 3.25914 6.73844C2.46266 5.94036 1.84535 5.06665 1.40721 4.1173C0.969071 3.16794 0.75 2.22211 0.75 1.27981C0.75 1.12844 0.8 1.00229 0.9 0.901376C1 0.800459 1.125 0.75 1.275 0.75H2.90575C3.03203 0.75 3.14341 0.791188 3.23989 0.873563C3.33636 0.955938 3.39774 1.0577 3.42401 1.17885L3.71055 2.64999C3.73043 2.78653 3.72626 2.90384 3.69805 3.00191C3.66985 3.09999 3.61921 3.18236 3.54613 3.24903L2.39133 4.37306C2.57723 4.71345 2.78957 5.0354 3.02835 5.33893C3.26713 5.64246 3.52563 5.93237 3.80383 6.20865C4.07819 6.48301 4.36986 6.73782 4.67884 6.97308C4.98781 7.20833 5.32147 7.42724 5.6798 7.6298L6.80191 6.49808C6.88012 6.41667 6.97483 6.35962 7.08605 6.32693C7.19727 6.29423 7.31281 6.28622 7.43269 6.30289L8.82113 6.58558C8.94741 6.61891 9.05046 6.68333 9.13026 6.77884C9.21007 6.87436 9.24998 6.98269 9.24998 7.10385V8.72498C9.24998 8.87498 9.19952 8.99998 9.0986 9.09998C8.99768 9.19998 8.87154 9.24998 8.72016 9.24998ZM2.03653 3.66346L2.92884 2.80961C2.94486 2.79679 2.95528 2.77916 2.96009 2.75673C2.9649 2.73428 2.9641 2.71345 2.95769 2.69423L2.74037 1.57691C2.73397 1.55127 2.72275 1.53204 2.70673 1.51923C2.6907 1.5064 2.66987 1.49999 2.64423 1.49999H1.57499C1.55576 1.49999 1.53974 1.5064 1.52691 1.51923C1.51409 1.53204 1.50768 1.54807 1.50768 1.5673C1.53332 1.90897 1.58925 2.25608 1.67546 2.60865C1.76169 2.96122 1.88204 3.31282 2.03653 3.66346ZM6.38651 7.9846C6.71793 8.13909 7.0636 8.25721 7.42354 8.33894C7.78348 8.42066 8.11986 8.46922 8.43268 8.4846C8.45191 8.4846 8.46793 8.47819 8.48075 8.46538C8.49358 8.45255 8.49999 8.43652 8.49999 8.41729V7.36538C8.49999 7.33973 8.49358 7.3189 8.48075 7.30286C8.46793 7.28684 8.4487 7.27562 8.42306 7.26921L7.37306 7.05575C7.35384 7.04934 7.33701 7.04854 7.32259 7.05335C7.30816 7.05816 7.29294 7.06858 7.27691 7.0846L6.38651 7.9846Z" fill="#004364"/>
</svg>
