<svg width="10" height="10" viewBox="0 0 10 10" fill="none" xmlns="http://www.w3.org/2000/svg">
<path d="M4.99999 7.36536C5.11441 7.36536 5.21033 7.32666 5.28773 7.24926C5.36513 7.17186 5.40383 7.07594 5.40383 6.96153C5.40383 6.8471 5.36513 6.75119 5.28773 6.67379C5.21033 6.59639 5.11441 6.55769 4.99999 6.55769C4.88556 6.55769 4.78965 6.59639 4.71225 6.67379C4.63485 6.75119 4.59615 6.8471 4.59615 6.96153C4.59615 7.07594 4.63485 7.17186 4.71225 7.24926C4.78965 7.32666 4.88556 7.36536 4.99999 7.36536ZM4.625 5.53845H5.37498V2.53845H4.625V5.53845ZM5.00082 9.74998C4.34386 9.74998 3.72634 9.62531 3.14828 9.37598C2.5702 9.12664 2.06736 8.78827 1.63975 8.36085C1.21213 7.93343 0.873604 7.43081 0.624163 6.85299C0.374721 6.27518 0.25 5.65779 0.25 5.00083C0.25 4.34386 0.374667 3.72634 0.624 3.14828C0.873333 2.5702 1.21171 2.06736 1.63913 1.63975C2.06655 1.21213 2.56917 0.873605 3.14699 0.624163C3.7248 0.374721 4.34218 0.25 4.99915 0.25C5.65612 0.25 6.27363 0.374667 6.8517 0.624001C7.42978 0.873334 7.93262 1.21171 8.36023 1.63913C8.78784 2.06655 9.12637 2.56917 9.37581 3.14699C9.62526 3.7248 9.74998 4.34218 9.74998 4.99915C9.74998 5.65612 9.62531 6.27363 9.37598 6.8517C9.12664 7.42978 8.78827 7.93262 8.36085 8.36023C7.93343 8.78784 7.43081 9.12637 6.85299 9.37581C6.27518 9.62526 5.65779 9.74998 5.00082 9.74998ZM4.99999 8.99999C6.11665 8.99999 7.06249 8.61249 7.83749 7.83749C8.61249 7.06249 8.99999 6.11665 8.99999 4.99999C8.99999 3.88332 8.61249 2.93749 7.83749 2.16249C7.06249 1.38749 6.11665 0.999988 4.99999 0.999988C3.88332 0.999988 2.93749 1.38749 2.16249 2.16249C1.38749 2.93749 0.999988 3.88332 0.999988 4.99999C0.999988 6.11665 1.38749 7.06249 2.16249 7.83749C2.93749 8.61249 3.88332 8.99999 4.99999 8.99999Z" fill="#EB0000"/>
</svg>
