<svg width="12" height="10" viewBox="0 0 12 10" fill="none" xmlns="http://www.w3.org/2000/svg">
<path d="M0.932617 9.24995L5.99989 0.5L11.0672 9.24995H0.932617ZM2.22489 8.49996H9.77489L5.99989 1.99996L2.22489 8.49996ZM5.99989 7.9038C6.11432 7.9038 6.21023 7.8651 6.28763 7.7877C6.36503 7.7103 6.40373 7.61439 6.40373 7.49996C6.40373 7.38554 6.36503 7.28963 6.28763 7.21223C6.21023 7.13483 6.11432 7.09613 5.99989 7.09613C5.88547 7.09613 5.78956 7.13483 5.71215 7.21223C5.63475 7.28963 5.59606 7.38554 5.59606 7.49996C5.59606 7.61439 5.63475 7.7103 5.71215 7.7877C5.78956 7.8651 5.88547 7.9038 5.99989 7.9038ZM5.62491 6.59613H6.37488V4.09613H5.62491V6.59613Z" fill="#EB0000"/>
</svg>
