<svg width="14" height="14" viewBox="0 0 14 14" fill="none" xmlns="http://www.w3.org/2000/svg">
<path d="M6.99788 10.1551C7.15044 10.1551 7.27833 10.1035 7.38155 10.0003C7.48477 9.89708 7.53638 9.76919 7.53638 9.61664C7.53638 9.46408 7.48477 9.33619 7.38155 9.23297C7.27833 9.12986 7.15044 9.0783 6.99788 9.0783C6.84533 9.0783 6.71744 9.12986 6.61422 9.23297C6.511 9.33619 6.45938 9.46408 6.45938 9.61664C6.45938 9.76919 6.511 9.89708 6.61422 10.0003C6.71744 10.1035 6.84533 10.1551 6.99788 10.1551ZM6.49788 7.7193H7.49788V3.7193H6.49788V7.7193ZM6.99905 13.3346C6.12305 13.3346 5.29966 13.1684 4.52888 12.836C3.75811 12.5035 3.08766 12.0524 2.51755 11.4825C1.94744 10.9126 1.49605 10.2424 1.16338 9.47197C0.830828 8.70152 0.664551 7.87836 0.664551 7.00247C0.664551 6.12647 0.830773 5.30308 1.16322 4.5323C1.49566 3.76152 1.94683 3.09108 2.51672 2.52097C3.08661 1.95086 3.75677 1.49947 4.52722 1.1668C5.29766 0.834246 6.12083 0.667969 6.99672 0.667969C7.87272 0.667969 8.69611 0.834191 9.46688 1.16664C10.2377 1.49908 10.9081 1.95025 11.4782 2.52014C12.0483 3.09002 12.4997 3.76019 12.8324 4.53064C13.1649 5.30108 13.3312 6.12425 13.3312 7.00014C13.3312 7.87614 13.165 8.69952 12.8326 9.4703C12.5001 10.2411 12.0489 10.9115 11.4791 11.4816C10.9092 12.0517 10.239 12.5031 9.46855 12.8358C8.69811 13.1684 7.87494 13.3346 6.99905 13.3346ZM6.99788 12.3346C8.48677 12.3346 9.74788 11.818 10.7812 10.7846C11.8146 9.7513 12.3312 8.49019 12.3312 7.0013C12.3312 5.51241 11.8146 4.2513 10.7812 3.21797C9.74788 2.18464 8.48677 1.66797 6.99788 1.66797C5.509 1.66797 4.24788 2.18464 3.21455 3.21797C2.18122 4.2513 1.66455 5.51241 1.66455 7.0013C1.66455 8.49019 2.18122 9.7513 3.21455 10.7846C4.24788 11.818 5.509 12.3346 6.99788 12.3346Z" fill="#FF871F"/>
</svg>
