<svg width="10" height="8" viewBox="0 0 10 8" fill="none" xmlns="http://www.w3.org/2000/svg">
<path d="M1.15385 7.74998C0.901283 7.74998 0.6875 7.66248 0.5125 7.48748C0.3375 7.31248 0.25 7.09869 0.25 6.84613V1.15385C0.25 0.901284 0.3375 0.6875 0.5125 0.5125C0.6875 0.3375 0.901283 0.25 1.15385 0.25H8.84613C9.09869 0.25 9.31248 0.3375 9.48748 0.5125C9.66248 0.6875 9.74998 0.901284 9.74998 1.15385V6.84613C9.74998 7.09869 9.66248 7.31248 9.48748 7.48748C9.31248 7.66248 9.09869 7.74998 8.84613 7.74998H1.15385ZM4.99999 4.27881L0.999988 1.72113V6.84613C0.999988 6.891 1.01441 6.92786 1.04326 6.95671C1.07211 6.98556 1.10898 6.99999 1.15385 6.99999H8.84613C8.891 6.99999 8.92786 6.98556 8.95671 6.95671C8.98556 6.92786 8.99999 6.891 8.99999 6.84613V1.72113L4.99999 4.27881ZM4.99999 3.49999L8.92306 0.999988H1.07691L4.99999 3.49999ZM0.999988 1.72113V0.999988V6.84613C0.999988 6.891 1.01441 6.92786 1.04326 6.95671C1.07211 6.98556 1.10898 6.99999 1.15385 6.99999H0.999988V1.72113Z" fill="#004364"/>
</svg>
