<svg width="10" height="10" viewBox="0 0 10 10" fill="none" xmlns="http://www.w3.org/2000/svg">
<path d="M1.15385 9.24995C0.901283 9.24995 0.6875 9.16245 0.5125 8.98745C0.3375 8.81245 0.25 8.59867 0.25 8.3461V3.15383C0.25 2.90126 0.3375 2.68747 0.5125 2.51247C0.6875 2.33747 0.901283 2.24997 1.15385 2.24997H3.25V1.40384C3.25 1.15128 3.3375 0.9375 3.5125 0.7625C3.6875 0.5875 3.90128 0.5 4.15385 0.5H5.84613C6.09869 0.5 6.31248 0.5875 6.48748 0.7625C6.66248 0.9375 6.74998 1.15128 6.74998 1.40384V2.24997H8.84613C9.09869 2.24997 9.31248 2.33747 9.48748 2.51247C9.66248 2.68747 9.74998 2.90126 9.74998 3.15383V8.3461C9.74998 8.59867 9.66248 8.81245 9.48748 8.98745C9.31248 9.16245 9.09869 9.24995 8.84613 9.24995H1.15385ZM1.15385 8.49996H8.84613C8.88459 8.49996 8.91986 8.48394 8.95191 8.45189C8.98396 8.41983 8.99999 8.38457 8.99999 8.3461V3.15383C8.99999 3.11536 8.98396 3.0801 8.95191 3.04804C8.91986 3.01599 8.88459 2.99996 8.84613 2.99996H1.15385C1.11538 2.99996 1.08012 3.01599 1.04806 3.04804C1.01601 3.0801 0.999988 3.11536 0.999988 3.15383V8.3461C0.999988 8.38457 1.01601 8.41983 1.04806 8.45189C1.08012 8.48394 1.11538 8.49996 1.15385 8.49996ZM3.99999 2.24997H5.99999V1.40384C5.99999 1.36537 5.98396 1.33011 5.95191 1.29806C5.91985 1.266 5.88459 1.24997 5.84613 1.24997H4.15385C4.11538 1.24997 4.08012 1.266 4.04806 1.29806C4.01601 1.33011 3.99999 1.36537 3.99999 1.40384V2.24997Z" fill="#004364"/>
</svg>
