<svg width="10" height="10" viewBox="0 0 10 10" fill="none" xmlns="http://www.w3.org/2000/svg">
<path d="M1.15385 9.74998C0.901283 9.74998 0.6875 9.66248 0.5125 9.48748C0.3375 9.31248 0.25 9.09869 0.25 8.84613V3.65385C0.25 3.40128 0.3375 3.1875 0.5125 3.0125C0.6875 2.8375 0.901283 2.75 1.15385 2.75H3.75V0.999988C3.75 0.792305 3.82308 0.615384 3.96923 0.469225C4.11538 0.323075 4.2923 0.25 4.49999 0.25H5.49999C5.70767 0.25 5.88459 0.323075 6.03075 0.469225C6.1769 0.615384 6.24998 0.792305 6.24998 0.999988V2.75H8.84613C9.09869 2.75 9.31248 2.8375 9.48748 3.0125C9.66248 3.1875 9.74998 3.40128 9.74998 3.65385V8.84613C9.74998 9.09869 9.66248 9.31248 9.48748 9.48748C9.31248 9.66248 9.09869 9.74998 8.84613 9.74998H1.15385ZM1.15385 8.99999H8.84613C8.891 8.99999 8.92786 8.98556 8.95671 8.95671C8.98556 8.92786 8.99999 8.891 8.99999 8.84613V3.65385C8.99999 3.60898 8.98556 3.57211 8.95671 3.54326C8.92786 3.51441 8.891 3.49999 8.84613 3.49999H6.24998V3.69231C6.24998 3.8968 6.1761 4.07291 6.02834 4.22066C5.88059 4.36841 5.70447 4.44229 5.49999 4.44229H4.49999C4.2955 4.44229 4.11939 4.36841 3.97164 4.22066C3.82388 4.07291 3.75 3.8968 3.75 3.69231V3.49999H1.15385C1.10898 3.49999 1.07211 3.51441 1.04326 3.54326C1.01441 3.57211 0.999988 3.60898 0.999988 3.65385V8.84613C0.999988 8.891 1.01441 8.92786 1.04326 8.95671C1.07211 8.98556 1.10898 8.99999 1.15385 8.99999ZM2.07691 7.85575H4.92306V7.70768C4.92306 7.57883 4.88748 7.46041 4.81633 7.35239C4.74518 7.24438 4.64678 7.16025 4.52114 7.09999C4.35768 7.0282 4.19213 6.97435 4.0245 6.93845C3.85688 6.90255 3.68204 6.8846 3.49999 6.8846C3.31794 6.8846 3.1431 6.90255 2.97548 6.93845C2.80784 6.97435 2.6423 7.0282 2.47884 7.09999C2.3532 7.16025 2.2548 7.24438 2.18365 7.35239C2.11249 7.46041 2.07691 7.57883 2.07691 7.70768V7.85575ZM5.99999 7.09613H7.99999V6.49999H5.99999V7.09613ZM3.49999 6.49999C3.68588 6.49999 3.84453 6.43428 3.97595 6.30288C4.10736 6.17147 4.17306 6.01281 4.17306 5.82691C4.17306 5.64102 4.10736 5.48237 3.97595 5.35096C3.84453 5.21955 3.68588 5.15385 3.49999 5.15385C3.3141 5.15385 3.15544 5.21955 3.02403 5.35096C2.89262 5.48237 2.82691 5.64102 2.82691 5.82691C2.82691 6.01281 2.89262 6.17147 3.02403 6.30288C3.15544 6.43428 3.3141 6.49999 3.49999 6.49999ZM5.99999 5.74999H7.99999V5.15385H5.99999V5.74999ZM4.49999 3.69231H5.49999V0.999988H4.49999V3.69231Z" fill="#004364"/>
</svg>
