<svg width="139" height="148" viewBox="0 0 139 148" fill="none" xmlns="http://www.w3.org/2000/svg">
<path d="M3.66238 72.4172C3.69675 72.6922 3.80417 72.8942 3.98463 73.0231C4.16939 73.152 4.39712 73.2164 4.66781 73.2164C4.98147 73.2164 5.23498 73.1305 5.42833 72.9586C5.62169 72.7867 5.72051 72.5397 5.72481 72.2174C5.72481 72.0198 5.67754 71.8501 5.58302 71.7083C5.49278 71.5665 5.37248 71.4569 5.22209 71.3796C5.076 71.3022 4.90843 71.2571 4.71937 71.2442C4.53461 71.227 4.3477 71.2442 4.15865 71.2958V71.1733L5.39611 69.5749H3.39168V69.1173H6.22753V69.2011L4.92562 70.8897C5.11037 70.8854 5.28224 70.9177 5.44122 70.9864C5.6045 71.0552 5.74414 71.1518 5.86015 71.2764C5.97617 71.3968 6.0664 71.5385 6.13085 71.7018C6.1996 71.8651 6.23397 72.037 6.23397 72.2174C6.23397 72.4323 6.19745 72.6299 6.1244 72.8104C6.05566 72.9908 5.95253 73.1455 5.81504 73.2744C5.68184 73.4033 5.51856 73.5043 5.32521 73.5773C5.13186 73.6504 4.91487 73.6869 4.67426 73.6869C4.47231 73.6869 4.2854 73.659 4.11353 73.6031C3.94166 73.5473 3.78913 73.4656 3.65593 73.3582C3.52703 73.2508 3.42176 73.1176 3.34012 72.9586C3.25848 72.7996 3.20907 72.6192 3.19188 72.4172H3.66238ZM8.72289 69.0593C8.95491 69.0593 9.16975 69.0959 9.3674 69.1689C9.56934 69.2376 9.74551 69.3386 9.89589 69.4718C10.0463 69.605 10.1644 69.7683 10.2504 69.9616C10.3363 70.1507 10.3793 70.3655 10.3793 70.6062V72.153C10.3793 72.3979 10.3363 72.6149 10.2504 72.8039C10.1644 72.993 10.0463 73.1541 9.89589 73.2873C9.74551 73.4162 9.56934 73.515 9.3674 73.5838C9.16975 73.6525 8.95491 73.6869 8.72289 73.6869C8.49086 73.6869 8.27173 73.6525 8.06549 73.5838C7.86354 73.515 7.68737 73.4162 7.53699 73.2873C7.3866 73.1541 7.26844 72.993 7.18251 72.8039C7.09657 72.6149 7.05361 72.3979 7.05361 72.153V70.6062C7.05361 70.3655 7.09657 70.1507 7.18251 69.9616C7.26844 69.7683 7.3866 69.605 7.53699 69.4718C7.68737 69.3386 7.86354 69.2376 8.06549 69.1689C8.27173 69.0959 8.49086 69.0593 8.72289 69.0593ZM8.72289 73.2164C8.98069 73.2164 9.20842 73.1563 9.40607 73.036C9.60372 72.9156 9.73692 72.7395 9.80566 72.5075C9.85293 72.3657 9.87656 72.2045 9.87656 72.0241V70.7351C9.87656 70.5546 9.85293 70.3935 9.80566 70.2517C9.73692 70.0197 9.60372 69.8413 9.40607 69.7167C9.20842 69.5878 8.98069 69.5234 8.72289 69.5234C8.45219 69.5234 8.22017 69.5878 8.02682 69.7167C7.83346 69.8413 7.70241 70.0197 7.63366 70.2517C7.5864 70.3935 7.56277 70.5546 7.56277 70.7351V72.0241C7.56277 72.2045 7.5864 72.3657 7.63366 72.5075C7.70241 72.7395 7.83346 72.9156 8.02682 73.036C8.22017 73.1563 8.45219 73.2164 8.72289 73.2164ZM12.9651 69.0593C13.1971 69.0593 13.4119 69.0959 13.6096 69.1689C13.8115 69.2376 13.9877 69.3386 14.1381 69.4718C14.2885 69.605 14.4066 69.7683 14.4926 69.9616C14.5785 70.1507 14.6215 70.3655 14.6215 70.6062V72.153C14.6215 72.3979 14.5785 72.6149 14.4926 72.8039C14.4066 72.993 14.2885 73.1541 14.1381 73.2873C13.9877 73.4162 13.8115 73.515 13.6096 73.5838C13.4119 73.6525 13.1971 73.6869 12.9651 73.6869C12.733 73.6869 12.5139 73.6525 12.3077 73.5838C12.1057 73.515 11.9296 73.4162 11.7792 73.2873C11.6288 73.1541 11.5106 72.993 11.4247 72.8039C11.3388 72.6149 11.2958 72.3979 11.2958 72.153V70.6062C11.2958 70.3655 11.3388 70.1507 11.4247 69.9616C11.5106 69.7683 11.6288 69.605 11.7792 69.4718C11.9296 69.3386 12.1057 69.2376 12.3077 69.1689C12.5139 69.0959 12.733 69.0593 12.9651 69.0593ZM12.9651 73.2164C13.2229 73.2164 13.4506 73.1563 13.6483 73.036C13.8459 72.9156 13.9791 72.7395 14.0478 72.5075C14.0951 72.3657 14.1187 72.2045 14.1187 72.0241V70.7351C14.1187 70.5546 14.0951 70.3935 14.0478 70.2517C13.9791 70.0197 13.8459 69.8413 13.6483 69.7167C13.4506 69.5878 13.2229 69.5234 12.9651 69.5234C12.6944 69.5234 12.4624 69.5878 12.269 69.7167C12.0756 69.8413 11.9446 70.0197 11.8758 70.2517C11.8286 70.3935 11.805 70.5546 11.805 70.7351V72.0241C11.805 72.2045 11.8286 72.3657 11.8758 72.5075C11.9446 72.7395 12.0756 72.9156 12.269 73.036C12.4624 73.1563 12.6944 73.2164 12.9651 73.2164Z" fill="#595959"/>
<path d="M125.113 73.6289L126.305 71.8307C126.219 71.878 126.125 71.9145 126.021 71.9403C125.918 71.9661 125.817 71.979 125.719 71.979C125.495 71.9833 125.287 71.9553 125.093 71.8952C124.9 71.8307 124.732 71.7362 124.591 71.6116C124.449 71.487 124.337 71.3345 124.256 71.154C124.174 70.9735 124.133 70.7673 124.133 70.5353C124.133 70.2903 124.176 70.0777 124.262 69.8972C124.352 69.7124 124.47 69.5578 124.616 69.4331C124.767 69.3085 124.941 69.2162 125.139 69.156C125.34 69.0916 125.555 69.0593 125.783 69.0593C126.006 69.0593 126.217 69.0916 126.415 69.156C126.617 69.2162 126.791 69.3085 126.937 69.4331C127.087 69.5578 127.205 69.7124 127.291 69.8972C127.381 70.0777 127.427 70.2903 127.427 70.5353C127.422 70.7157 127.396 70.879 127.349 71.0251C127.302 71.1712 127.229 71.3173 127.13 71.4634L125.706 73.6289H125.113ZM125.783 69.5234C125.628 69.5234 125.482 69.547 125.345 69.5943C125.207 69.6372 125.089 69.7017 124.99 69.7876C124.891 69.8736 124.812 69.981 124.752 70.1099C124.696 70.2345 124.668 70.3763 124.668 70.5353C124.668 70.6985 124.696 70.8446 124.752 70.9735C124.812 71.0981 124.891 71.2034 124.99 71.2893C125.093 71.3753 125.214 71.4419 125.351 71.4891C125.489 71.5321 125.635 71.5536 125.789 71.5536C125.944 71.5536 126.088 71.5321 126.221 71.4891C126.359 71.4419 126.477 71.3753 126.576 71.2893C126.675 71.2034 126.752 71.0981 126.808 70.9735C126.868 70.8446 126.898 70.6985 126.898 70.5353C126.898 70.3763 126.868 70.2345 126.808 70.1099C126.752 69.981 126.672 69.8736 126.569 69.7876C126.47 69.7017 126.352 69.6372 126.215 69.5943C126.082 69.547 125.938 69.5234 125.783 69.5234ZM129.791 69.0593C130.023 69.0593 130.238 69.0959 130.436 69.1689C130.638 69.2376 130.814 69.3386 130.964 69.4718C131.115 69.605 131.233 69.7683 131.319 69.9616C131.405 70.1507 131.448 70.3655 131.448 70.6062V72.153C131.448 72.3979 131.405 72.6149 131.319 72.8039C131.233 72.993 131.115 73.1541 130.964 73.2873C130.814 73.4162 130.638 73.515 130.436 73.5838C130.238 73.6525 130.023 73.6869 129.791 73.6869C129.559 73.6869 129.34 73.6525 129.134 73.5838C128.932 73.515 128.756 73.4162 128.606 73.2873C128.455 73.1541 128.337 72.993 128.251 72.8039C128.165 72.6149 128.122 72.3979 128.122 72.153V70.6062C128.122 70.3655 128.165 70.1507 128.251 69.9616C128.337 69.7683 128.455 69.605 128.606 69.4718C128.756 69.3386 128.932 69.2376 129.134 69.1689C129.34 69.0959 129.559 69.0593 129.791 69.0593ZM129.791 73.2164C130.049 73.2164 130.277 73.1563 130.475 73.036C130.672 72.9156 130.805 72.7395 130.874 72.5075C130.922 72.3657 130.945 72.2045 130.945 72.0241V70.7351C130.945 70.5546 130.922 70.3935 130.874 70.2517C130.805 70.0197 130.672 69.8413 130.475 69.7167C130.277 69.5878 130.049 69.5234 129.791 69.5234C129.521 69.5234 129.289 69.5878 129.095 69.7167C128.902 69.8413 128.771 70.0197 128.702 70.2517C128.655 70.3935 128.631 70.5546 128.631 70.7351V72.0241C128.631 72.2045 128.655 72.3657 128.702 72.5075C128.771 72.7395 128.902 72.9156 129.095 73.036C129.289 73.1563 129.521 73.2164 129.791 73.2164ZM134.034 69.0593C134.266 69.0593 134.481 69.0959 134.678 69.1689C134.88 69.2376 135.056 69.3386 135.207 69.4718C135.357 69.605 135.475 69.7683 135.561 69.9616C135.647 70.1507 135.69 70.3655 135.69 70.6062V72.153C135.69 72.3979 135.647 72.6149 135.561 72.8039C135.475 72.993 135.357 73.1541 135.207 73.2873C135.056 73.4162 134.88 73.515 134.678 73.5838C134.481 73.6525 134.266 73.6869 134.034 73.6869C133.802 73.6869 133.582 73.6525 133.376 73.5838C133.174 73.515 132.998 73.4162 132.848 73.2873C132.697 73.1541 132.579 72.993 132.493 72.8039C132.407 72.6149 132.364 72.3979 132.364 72.153V70.6062C132.364 70.3655 132.407 70.1507 132.493 69.9616C132.579 69.7683 132.697 69.605 132.848 69.4718C132.998 69.3386 133.174 69.2376 133.376 69.1689C133.582 69.0959 133.802 69.0593 134.034 69.0593ZM134.034 73.2164C134.291 73.2164 134.519 73.1563 134.717 73.036C134.914 72.9156 135.048 72.7395 135.116 72.5075C135.164 72.3657 135.187 72.2045 135.187 72.0241V70.7351C135.187 70.5546 135.164 70.3935 135.116 70.2517C135.048 70.0197 134.914 69.8413 134.717 69.7167C134.519 69.5878 134.291 69.5234 134.034 69.5234C133.763 69.5234 133.531 69.5878 133.338 69.7167C133.144 69.8413 133.013 70.0197 132.944 70.2517C132.897 70.3935 132.874 70.5546 132.874 70.7351V72.0241C132.874 72.2045 132.897 72.3657 132.944 72.5075C133.013 72.7395 133.144 72.9156 133.338 73.036C133.531 73.1563 133.763 73.2164 134.034 73.2164Z" fill="#595959"/>
<path d="M86.3027 62.8467C86.3027 58.4263 84.5467 54.187 81.421 51.0613C78.2954 47.9357 74.0561 46.1797 69.6357 46.1797C65.2154 46.1797 60.9761 47.9357 57.8504 51.0613C54.7247 54.187 52.9688 58.4263 52.9688 62.8467L69.6357 62.8467H86.3027Z" fill="#F2F2F2"/>
<path d="M6.08008 63.7266C6.08008 46.8253 12.7941 30.6162 24.7452 18.6651C36.6962 6.71404 52.9054 -2.01547e-07 69.8067 0V6.37266C54.5955 6.37266 40.0073 12.4153 29.2513 23.1712C18.4954 33.9272 12.4527 48.5154 12.4527 63.7266H6.08008Z" fill="#BFBFBF"/>
<path d="M71.1098 0.0136719C79.0054 0.175127 86.8023 1.80276 94.1031 4.81364L91.6734 10.705C85.1027 7.99518 78.0856 6.53031 70.9795 6.385L71.1098 0.0136719Z" fill="#BFBFBF"/>
<path d="M95.2787 5.3125C102.518 8.46916 109.107 12.9438 114.71 18.5086L110.22 23.0304C105.177 18.0221 99.2465 13.9949 92.7314 11.1539L95.2787 5.3125Z" fill="#BFBFBF"/>
<path d="M115.569 19.3789C121.065 25.0501 125.459 31.6934 128.527 38.9704L122.655 41.4461C119.894 34.8968 115.939 28.9178 110.993 23.8138L115.569 19.3789Z" fill="#BFBFBF"/>
<path d="M129.096 40.3594C131.991 47.7066 133.496 55.5281 133.533 63.4253L127.161 63.4553C127.127 56.3479 125.773 49.3085 123.167 42.696L129.096 40.3594Z" fill="#BFBFBF"/>
<path d="M63.6087 87.3414V147.629H55.5759L25.2251 101.13V147.629H17.2337V87.3414H25.2251L55.7001 133.965V87.3414H63.6087ZM114.603 113.262V119.762H81.9749V113.262H114.603ZM83.2171 87.3414V147.629H75.2257V87.3414H83.2171ZM121.559 87.3414V147.629H113.609V87.3414H121.559Z" fill="#BFBFBF"/>
</svg>
