<svg width="73" height="61" viewBox="0 0 73 61" fill="none" xmlns="http://www.w3.org/2000/svg">
<path d="M36.7578 0.09375L66.7028 14.7698V45.4434L36.7578 30.7674V0.09375Z" fill="#00A6CA"/>
<path d="M36.7578 0.09375L6.81285 14.7698V45.4434L36.7578 30.7674V0.09375Z" fill="#005F8D"/>
<path d="M6.8125 14.9492L36.7575 29.6253V60.2989L6.8125 45.6228V14.9492Z" fill="#CCEDFA"/>
<path d="M66.7031 14.9492L36.7582 29.6253V60.2989L66.7031 45.6228V14.9492Z" fill="#99DBEA"/>
<path d="M43.0365 43.0373L36.7422 29.4985L66.861 14.8516L72.8902 27.5274L43.0365 43.0373Z" fill="#CCEDFA"/>
<path d="M30.4635 43.1349L36.7578 29.5961L6.63896 14.9492L0.609764 27.625L30.4635 43.1349Z" fill="#99DBEA"/>
<path d="M12.6787 23.9543C12.5645 30.2716 17.5931 35.4854 23.9104 35.5996C30.2277 35.7138 35.4415 30.6852 35.5557 24.3678C35.6699 18.0505 30.6413 12.8367 24.3239 12.7226C18.0066 12.6084 12.7928 17.637 12.6787 23.9543Z" fill="#99DBEA" fill-opacity="0.5" stroke="#00A6CA" stroke-width="1.925"/>
<path d="M10.644 49.1489L19.0144 34.9024L17.6052 34.1618L8.14153 48.1084C8.10287 50.2472 9.6318 50.1006 10.644 49.1489Z" fill="#00A6CA"/>
</svg>
