<svg width="61" height="68" viewBox="0 0 61 68" fill="none" xmlns="http://www.w3.org/2000/svg">
<path d="M13.832 6.4181C13.832 5.70934 14.4066 5.13477 15.1154 5.13477H59.3774C60.0862 5.13477 60.6608 5.70933 60.6608 6.4181V56.3593C60.6608 56.6965 60.528 57.0202 60.2913 57.2603L50.075 67.6224H15.1154C14.4066 67.6224 13.832 67.0478 13.832 66.339V6.4181Z" fill="#CCEDFA"/>
<path d="M50.168 67.577V58.0763C50.168 57.3675 50.7425 56.793 51.4513 56.793H60.6867L50.168 67.577Z" fill="#99DBEA"/>
<circle cx="13.4438" cy="13.4438" r="12.4813" transform="matrix(-0.987461 -0.157862 -0.157862 0.987461 37.2461 25.6289)" fill="#99DBEA" fill-opacity="0.5" stroke="#00A6CA" stroke-width="1.925"/>
<path d="M3.59561 61.5567L14.7409 47.5368L13.3409 46.5281L1.06773 60.0604C0.70171 62.3499 2.36489 62.4246 3.59561 61.5567Z" fill="#00A6CA"/>
<path d="M48.4219 1.37695V10.9952C48.5599 12.2793 48.4219 15.2065 52.2741 14.8474C54.8181 14.6103 55.4207 12.9374 55.4207 10.9952V3.35151C55.4988 2.78037 54.9326 1.63809 53.5248 1.63809C52.117 1.63809 51.553 2.78037 51.5685 3.35151V11.7797" stroke="#99DBEA" stroke-width="1.28333" stroke-linecap="round"/>
</svg>
