<svg width="13" height="12" viewBox="0 0 13 12" fill="none" xmlns="http://www.w3.org/2000/svg">
<path d="M4.17716 11.6673C3.24294 11.6673 2.45211 11.3436 1.80466 10.6962C1.15722 10.0487 0.833496 9.25787 0.833496 8.32365C0.833496 7.93143 0.900385 7.55026 1.03416 7.18015C1.16794 6.81004 1.35961 6.4746 1.60916 6.17382L3.963 3.34298L2.46166 0.333984H10.5387L9.03733 3.34298L11.3912 6.17382C11.6407 6.4746 11.8324 6.81004 11.9662 7.18015C12.0999 7.55026 12.1668 7.93143 12.1668 8.32365C12.1668 9.25787 11.8414 10.0487 11.1905 10.6962C10.5397 11.3436 9.75061 11.6673 8.82316 11.6673H4.17716ZM6.50016 8.49415C6.16772 8.49415 5.88377 8.37643 5.64833 8.14098C5.41277 7.90554 5.295 7.62159 5.295 7.28915C5.295 6.95659 5.41277 6.6726 5.64833 6.43715C5.88377 6.20171 6.16772 6.08398 6.50016 6.08398C6.83261 6.08398 7.11655 6.20171 7.352 6.43715C7.58755 6.6726 7.70533 6.95659 7.70533 7.28915C7.70533 7.62159 7.58755 7.90554 7.352 8.14098C7.11655 8.37643 6.83261 8.49415 6.50016 8.49415ZM4.87833 2.91732H8.12833L8.91683 1.33398H4.0835L4.87833 2.91732ZM4.17716 10.6673H8.82316C9.47794 10.6673 10.0322 10.4393 10.486 9.98332C10.9399 9.52732 11.1668 8.9741 11.1668 8.32365C11.1668 8.04843 11.1196 7.7816 11.0252 7.52315C10.9307 7.2646 10.7959 7.03104 10.6207 6.82248L8.20266 3.91732H4.81433L2.386 6.81215C2.21077 7.02071 2.07489 7.25598 1.97833 7.51798C1.88177 7.77987 1.8335 8.04843 1.8335 8.32365C1.8335 8.9741 2.0615 9.52732 2.5175 9.98332C2.9735 10.4393 3.52672 10.6673 4.17716 10.6673Z" fill="#5F5BA9"/>
</svg>
