<svg width="14" height="10" viewBox="0 0 14 10" fill="none" xmlns="http://www.w3.org/2000/svg">
<path d="M13.3332 1.20517V8.79483C13.3332 9.13161 13.2165 9.41667 12.9832 9.65C12.7498 9.88333 12.4648 10 12.128 10H1.87167C1.53489 10 1.24984 9.88333 1.0165 9.65C0.783171 9.41667 0.666504 9.13161 0.666504 8.79483V1.20517C0.666504 0.868389 0.783171 0.583333 1.0165 0.35C1.24984 0.116667 1.53489 0 1.87167 0H12.128C12.4648 0 12.7498 0.116667 12.9832 0.35C13.2165 0.583333 13.3332 0.868389 13.3332 1.20517ZM1.6665 2.60267H12.3332V1.20517C12.3332 1.15383 12.3118 1.10683 12.269 1.06417C12.2263 1.02139 12.1793 1 12.128 1H1.87167C1.82034 1 1.77334 1.02139 1.73067 1.06417C1.68789 1.10683 1.6665 1.15383 1.6665 1.20517V2.60267ZM1.6665 4.73067V8.79483C1.6665 8.84617 1.68789 8.89317 1.73067 8.93583C1.77334 8.97861 1.82034 9 1.87167 9H12.128C12.1793 9 12.2263 8.97861 12.269 8.93583C12.3118 8.89317 12.3332 8.84617 12.3332 8.79483V4.73067H1.6665Z" fill="#5F5BA9"/>
</svg>
