<svg width="135" height="75" viewBox="0 0 135 75" fill="none" xmlns="http://www.w3.org/2000/svg">
<path d="M1.18093 72.4172C1.2153 72.6922 1.32272 72.8942 1.50319 73.0231C1.68794 73.152 1.91567 73.2164 2.18637 73.2164C2.50003 73.2164 2.75353 73.1305 2.94689 72.9586C3.14024 72.7867 3.23907 72.5397 3.24336 72.2174C3.24336 72.0198 3.1961 71.8501 3.10157 71.7083C3.01134 71.5665 2.89103 71.4569 2.74064 71.3796C2.59456 71.3022 2.42698 71.2571 2.23793 71.2442C2.05317 71.227 1.86626 71.2442 1.6772 71.2958V71.1733L2.91466 69.5749H0.910236V69.1173H3.74608V69.2011L2.44417 70.8897C2.62893 70.8854 2.8008 70.9177 2.95978 70.9864C3.12305 71.0552 3.2627 71.1518 3.37871 71.2764C3.49472 71.3968 3.58495 71.5385 3.6494 71.7018C3.71815 71.8651 3.75253 72.037 3.75253 72.2174C3.75253 72.4323 3.716 72.6299 3.64296 72.8104C3.57421 72.9908 3.47109 73.1455 3.33359 73.2744C3.20039 73.4033 3.03712 73.5043 2.84377 73.5773C2.65041 73.6504 2.43343 73.6869 2.19281 73.6869C1.99086 73.6869 1.80396 73.659 1.63209 73.6031C1.46022 73.5473 1.30768 73.4656 1.17449 73.3582C1.04558 73.2508 0.940313 73.1176 0.858675 72.9586C0.777038 72.7996 0.727625 72.6192 0.710438 72.4172H1.18093ZM6.24144 69.0593C6.47346 69.0593 6.6883 69.0959 6.88595 69.1689C7.0879 69.2376 7.26406 69.3386 7.41445 69.4718C7.56483 69.605 7.68299 69.7683 7.76893 69.9616C7.85486 70.1507 7.89783 70.3655 7.89783 70.6062V72.153C7.89783 72.3979 7.85486 72.6149 7.76893 72.8039C7.68299 72.993 7.56483 73.1541 7.41445 73.2873C7.26406 73.4162 7.0879 73.515 6.88595 73.5838C6.6883 73.6525 6.47346 73.6869 6.24144 73.6869C6.00942 73.6869 5.79028 73.6525 5.58404 73.5838C5.38209 73.515 5.20593 73.4162 5.05554 73.2873C4.90516 73.1541 4.787 72.993 4.70106 72.8039C4.61513 72.6149 4.57216 72.3979 4.57216 72.153V70.6062C4.57216 70.3655 4.61513 70.1507 4.70106 69.9616C4.787 69.7683 4.90516 69.605 5.05554 69.4718C5.20593 69.3386 5.38209 69.2376 5.58404 69.1689C5.79028 69.0959 6.00942 69.0593 6.24144 69.0593ZM6.24144 73.2164C6.49924 73.2164 6.72697 73.1563 6.92462 73.036C7.12227 72.9156 7.25547 72.7395 7.32422 72.5075C7.37148 72.3657 7.39511 72.2045 7.39511 72.0241V70.7351C7.39511 70.5546 7.37148 70.3935 7.32422 70.2517C7.25547 70.0197 7.12227 69.8413 6.92462 69.7167C6.72697 69.5878 6.49924 69.5234 6.24144 69.5234C5.97075 69.5234 5.73872 69.5878 5.54537 69.7167C5.35202 69.8413 5.22097 70.0197 5.15222 70.2517C5.10496 70.3935 5.08132 70.5546 5.08132 70.7351V72.0241C5.08132 72.2045 5.10496 72.3657 5.15222 72.5075C5.22097 72.7395 5.35202 72.9156 5.54537 73.036C5.73872 73.1563 5.97075 73.2164 6.24144 73.2164ZM10.4836 69.0593C10.7156 69.0593 10.9305 69.0959 11.1281 69.1689C11.3301 69.2376 11.5062 69.3386 11.6566 69.4718C11.807 69.605 11.9252 69.7683 12.0111 69.9616C12.097 70.1507 12.14 70.3655 12.14 70.6062V72.153C12.14 72.3979 12.097 72.6149 12.0111 72.8039C11.9252 72.993 11.807 73.1541 11.6566 73.2873C11.5062 73.4162 11.3301 73.515 11.1281 73.5838C10.9305 73.6525 10.7156 73.6869 10.4836 73.6869C10.2516 73.6869 10.0325 73.6525 9.82623 73.5838C9.62428 73.515 9.44811 73.4162 9.29773 73.2873C9.14734 73.1541 9.02918 72.993 8.94325 72.8039C8.85731 72.6149 8.81434 72.3979 8.81434 72.153V70.6062C8.81434 70.3655 8.85731 70.1507 8.94325 69.9616C9.02918 69.7683 9.14734 69.605 9.29773 69.4718C9.44811 69.3386 9.62428 69.2376 9.82623 69.1689C10.0325 69.0959 10.2516 69.0593 10.4836 69.0593ZM10.4836 73.2164C10.7414 73.2164 10.9692 73.1563 11.1668 73.036C11.3645 72.9156 11.4977 72.7395 11.5664 72.5075C11.6137 72.3657 11.6373 72.2045 11.6373 72.0241V70.7351C11.6373 70.5546 11.6137 70.3935 11.5664 70.2517C11.4977 70.0197 11.3645 69.8413 11.1668 69.7167C10.9692 69.5878 10.7414 69.5234 10.4836 69.5234C10.2129 69.5234 9.98091 69.5878 9.78755 69.7167C9.5942 69.8413 9.46315 70.0197 9.3944 70.2517C9.34714 70.3935 9.32351 70.5546 9.32351 70.7351V72.0241C9.32351 72.2045 9.34714 72.3657 9.3944 72.5075C9.46315 72.7395 9.5942 72.9156 9.78755 73.036C9.98091 73.1563 10.2129 73.2164 10.4836 73.2164Z" fill="#595959"/>
<path d="M122.631 73.6289L123.824 71.8307C123.738 71.878 123.643 71.9145 123.54 71.9403C123.437 71.9661 123.336 71.979 123.237 71.979C123.014 71.9833 122.805 71.9553 122.612 71.8952C122.419 71.8307 122.251 71.7362 122.109 71.6116C121.967 71.487 121.856 71.3345 121.774 71.154C121.692 70.9735 121.652 70.7673 121.652 70.5353C121.652 70.2903 121.695 70.0777 121.781 69.8972C121.871 69.7124 121.989 69.5578 122.135 69.4331C122.285 69.3085 122.459 69.2162 122.657 69.156C122.859 69.0916 123.074 69.0593 123.302 69.0593C123.525 69.0593 123.736 69.0916 123.933 69.156C124.135 69.2162 124.309 69.3085 124.455 69.4331C124.606 69.5578 124.724 69.7124 124.81 69.8972C124.9 70.0777 124.945 70.2903 124.945 70.5353C124.941 70.7157 124.915 70.879 124.868 71.0251C124.82 71.1712 124.747 71.3173 124.649 71.4634L123.224 73.6289H122.631ZM123.302 69.5234C123.147 69.5234 123.001 69.547 122.863 69.5943C122.726 69.6372 122.608 69.7017 122.509 69.7876C122.41 69.8736 122.331 69.981 122.27 70.1099C122.214 70.2345 122.187 70.3763 122.187 70.5353C122.187 70.6985 122.214 70.8446 122.27 70.9735C122.331 71.0981 122.41 71.2034 122.509 71.2893C122.612 71.3753 122.732 71.4419 122.87 71.4891C123.007 71.5321 123.153 71.5536 123.308 71.5536C123.463 71.5536 123.607 71.5321 123.74 71.4891C123.877 71.4419 123.995 71.3753 124.094 71.2893C124.193 71.2034 124.27 71.0981 124.326 70.9735C124.386 70.8446 124.417 70.6985 124.417 70.5353C124.417 70.3763 124.386 70.2345 124.326 70.1099C124.27 69.981 124.191 69.8736 124.088 69.7876C123.989 69.7017 123.871 69.6372 123.733 69.5943C123.6 69.547 123.456 69.5234 123.302 69.5234ZM127.31 69.0593C127.542 69.0593 127.757 69.0959 127.955 69.1689C128.156 69.2376 128.333 69.3386 128.483 69.4718C128.633 69.605 128.752 69.7683 128.838 69.9616C128.923 70.1507 128.966 70.3655 128.966 70.6062V72.153C128.966 72.3979 128.923 72.6149 128.838 72.8039C128.752 72.993 128.633 73.1541 128.483 73.2873C128.333 73.4162 128.156 73.515 127.955 73.5838C127.757 73.6525 127.542 73.6869 127.31 73.6869C127.078 73.6869 126.859 73.6525 126.653 73.5838C126.451 73.515 126.275 73.4162 126.124 73.2873C125.974 73.1541 125.856 72.993 125.77 72.8039C125.684 72.6149 125.641 72.3979 125.641 72.153V70.6062C125.641 70.3655 125.684 70.1507 125.77 69.9616C125.856 69.7683 125.974 69.605 126.124 69.4718C126.275 69.3386 126.451 69.2376 126.653 69.1689C126.859 69.0959 127.078 69.0593 127.31 69.0593ZM127.31 73.2164C127.568 73.2164 127.796 73.1563 127.993 73.036C128.191 72.9156 128.324 72.7395 128.393 72.5075C128.44 72.3657 128.464 72.2045 128.464 72.0241V70.7351C128.464 70.5546 128.44 70.3935 128.393 70.2517C128.324 70.0197 128.191 69.8413 127.993 69.7167C127.796 69.5878 127.568 69.5234 127.31 69.5234C127.039 69.5234 126.807 69.5878 126.614 69.7167C126.421 69.8413 126.29 70.0197 126.221 70.2517C126.174 70.3935 126.15 70.5546 126.15 70.7351V72.0241C126.15 72.2045 126.174 72.3657 126.221 72.5075C126.29 72.7395 126.421 72.9156 126.614 73.036C126.807 73.1563 127.039 73.2164 127.31 73.2164ZM131.552 69.0593C131.784 69.0593 131.999 69.0959 132.197 69.1689C132.399 69.2376 132.575 69.3386 132.725 69.4718C132.876 69.605 132.994 69.7683 133.08 69.9616C133.166 70.1507 133.209 70.3655 133.209 70.6062V72.153C133.209 72.3979 133.166 72.6149 133.08 72.8039C132.994 72.993 132.876 73.1541 132.725 73.2873C132.575 73.4162 132.399 73.515 132.197 73.5838C131.999 73.6525 131.784 73.6869 131.552 73.6869C131.32 73.6869 131.101 73.6525 130.895 73.5838C130.693 73.515 130.517 73.4162 130.366 73.2873C130.216 73.1541 130.098 72.993 130.012 72.8039C129.926 72.6149 129.883 72.3979 129.883 72.153V70.6062C129.883 70.3655 129.926 70.1507 130.012 69.9616C130.098 69.7683 130.216 69.605 130.366 69.4718C130.517 69.3386 130.693 69.2376 130.895 69.1689C131.101 69.0959 131.32 69.0593 131.552 69.0593ZM131.552 73.2164C131.81 73.2164 132.038 73.1563 132.235 73.036C132.433 72.9156 132.566 72.7395 132.635 72.5075C132.682 72.3657 132.706 72.2045 132.706 72.0241V70.7351C132.706 70.5546 132.682 70.3935 132.635 70.2517C132.566 70.0197 132.433 69.8413 132.235 69.7167C132.038 69.5878 131.81 69.5234 131.552 69.5234C131.282 69.5234 131.049 69.5878 130.856 69.7167C130.663 69.8413 130.532 70.0197 130.463 70.2517C130.416 70.3935 130.392 70.5546 130.392 70.7351V72.0241C130.392 72.2045 130.416 72.3657 130.463 72.5075C130.532 72.7395 130.663 72.9156 130.856 73.036C131.049 73.1563 131.282 73.2164 131.552 73.2164Z" fill="#595959"/>
<path d="M83.8212 62.8486C83.8212 58.4283 82.0653 54.1889 78.9396 51.0633C75.8139 47.9376 71.5746 46.1816 67.1543 46.1816C62.7339 46.1816 58.4946 47.9376 55.3689 51.0633C52.2433 54.1889 50.4873 58.4283 50.4873 62.8486L67.1543 62.8486H83.8212Z" fill="#F2F2F2"/>
<path d="M79.0899 24.1723L64.9059 54.816C64.3764 55.9598 64.9212 57.3064 66.1057 57.7818C67.2902 58.2572 68.6399 57.671 69.0782 56.4907L80.823 24.8678C80.9954 24.4035 80.7633 23.8884 80.2974 23.7014C79.8314 23.5144 79.2982 23.7223 79.0899 24.1723Z" fill="#262626"/>
<path d="M3.59863 63.7266C3.59863 46.8253 10.3127 30.6162 22.2637 18.6651C34.2148 6.71404 50.4239 -2.01547e-07 67.3253 0V6.37266C52.114 6.37266 37.5258 12.4153 26.7699 23.1712C16.0139 33.9272 9.9713 48.5154 9.9713 63.7266H3.59863Z" fill="#E15825"/>
<path d="M68.6283 0.0136719C76.524 0.175127 84.3208 1.80276 91.6216 4.81364L89.192 10.705C82.6213 7.99518 75.6041 6.53031 68.498 6.385L68.6283 0.0136719Z" fill="#F18200"/>
<path d="M92.7972 5.3125C100.036 8.46916 106.625 12.9438 112.229 18.5086L107.739 23.0304C102.695 18.0221 96.7651 13.9949 90.25 11.1539L92.7972 5.3125Z" fill="#FCD800"/>
<path d="M113.088 19.3789C118.584 25.0501 122.978 31.6934 126.046 38.9704L120.174 41.4461C117.413 34.8968 113.458 28.9178 108.512 23.8138L113.088 19.3789Z" fill="#A9D161"/>
<path d="M126.614 40.3594C129.51 47.7066 131.015 55.5281 131.052 63.4253L124.679 63.4553C124.646 56.3479 123.292 49.3085 120.686 42.696L126.614 40.3594Z" fill="#009900"/>
</svg>
